# File created by Blade
# Date/Time:  Wed Jan 21 17:57:11 2015
# Frame Rate: 120.000 fps
#------------------------------------------------------
:FULLY-SPECIFIED
:DEGREES
1906
root 17.391922 36.193807 -20.592505 -180.232507 0.977628 -186.234885
Spine 2.125719 2.484919 -5.794795
Head 144.030456 -1.775099 177.710739
LeftShoulder 1.021467 -7.366046 -7.382270
LeftArm 25.910067 63.677206 -54.923303
LeftForeArm 0.210863 -0.000000 39.051304
LeftHand 0.126387 -0.000000 -9.434434
LeftHandThumb1 -26.253704 0.000000 33.147579
RightShoulder 4.759584 -22.458063 3.502899
RightArm 38.373870 -31.854181 51.916452
RightForeArm -9.813150 0.000000 53.642300
RightHand 0.718532 -0.000000 0.983725
RightHandThumb1 -24.326973 -0.000000 -32.862282
LeftUpLeg -9.086335 16.592049 -2.568547
LeftLeg 25.317598 -0.000000 -0.000000
LeftFoot -22.466001 10.606205 -15.409070
LeftToeBase 13.807449 -0.000000 -0.000000
RightUpLeg -1.262773 -9.188297 -6.849462
RightLeg 8.488431 -0.000000 -0.000000
RightFoot -23.851997 -26.553592 14.129771
RightToeBase 18.088012 -0.000000 -0.000000
1907
root 17.391358 36.191599 -20.618380 -180.481026 0.892585 -185.984102
Spine 2.135163 2.594721 -5.521367
Head 143.825460 -1.497893 177.627051
LeftShoulder 1.149396 -7.354667 -7.515354
LeftArm 26.150497 63.498556 -54.659044
LeftForeArm 0.376422 -0.000000 39.539473
LeftHand 0.120611 -0.000000 -9.280757
LeftHandThumb1 -26.253704 0.000000 33.147579
RightShoulder 4.746292 -22.424984 3.480438
RightArm 38.532156 -31.823960 51.886716
RightForeArm -10.539092 0.000000 53.684216
RightHand 0.762671 -0.000000 0.807130
RightHandThumb1 -24.326973 -0.000000 -32.862282
LeftUpLeg -8.420623 16.794510 -2.704960
LeftLeg 24.519054 -0.000000 -0.000000
LeftFoot -22.455521 10.667720 -15.364287
LeftToeBase 13.322263 -0.000000 -0.000000
RightUpLeg -0.596076 -9.241102 -6.676713
RightLeg 7.845001 -0.000000 -0.000000
RightFoot -23.581926 -26.471997 14.050438
RightToeBase 17.723097 -0.000000 -0.000000
1908
root 17.394044 36.181797 -20.635938 -180.638238 1.037846 -185.780678
Spine 1.995589 2.902277 -5.383443
Head 143.564079 -1.110091 177.596738
LeftShoulder 1.311333 -7.263299 -7.569809
LeftArm 26.456697 63.287563 -54.310942
LeftForeArm 0.767905 -0.000000 40.018242
LeftHand 0.048257 -0.000000 -9.154823
LeftHandThumb1 -26.253704 0.000000 33.147579
RightShoulder 4.767529 -22.362355 3.545447
RightArm 38.666968 -31.856938 51.785691
RightForeArm -11.180016 -0.000000 53.642189
RightHand 0.751771 -0.000000 0.642790
RightHandThumb1 -24.326973 -0.000000 -32.862282
LeftUpLeg -7.750071 17.067971 -2.853926
LeftLeg 23.446551 -0.000000 -0.000000
LeftFoot -22.498083 11.309545 -15.366241
LeftToeBase 12.923318 -0.000000 -0.000000
RightUpLeg -0.158787 -8.912891 -6.516711
RightLeg 7.353843 -0.000000 -0.000000
RightFoot -23.426808 -26.571100 13.934012
RightToeBase 17.618555 -0.000000 -0.000000
1909
root 17.388711 36.168835 -20.664591 -180.858270 0.996231 -185.465058
Spine 1.940350 2.916260 -5.048470
Head 143.277288 -1.163885 177.596229
LeftShoulder 1.367520 -7.256447 -7.745052
LeftArm 26.715406 63.156081 -53.942318
LeftForeArm 1.019799 -0.000000 40.434205
LeftHand 0.234420 -0.000000 -9.102843
LeftHandThumb1 -26.253704 0.000000 33.147579
RightShoulder 4.835765 -22.176516 3.494218
RightArm 38.785172 -31.888768 51.846161
RightForeArm -11.888310 -0.000000 53.239209
RightHand 1.060075 -0.000000 0.689872
RightHandThumb1 -24.326973 -0.000000 -32.862282
LeftUpLeg -7.014650 16.970117 -2.817577
LeftLeg 22.378639 -0.000000 -0.000000
LeftFoot -22.590915 12.296098 -15.396681
LeftToeBase 12.617844 -0.000000 -0.000000
RightUpLeg 0.432150 -8.879861 -6.288294
RightLeg 6.801748 -0.000000 -0.000000
RightFoot -23.221328 -26.530080 13.910543
RightToeBase 17.423669 -0.000000 -0.000000
1910
root 17.379852 36.150081 -20.691973 -181.076425 0.897684 -185.103056
Spine 1.888489 2.863301 -4.660594
Head 142.967004 -1.136707 177.593725
LeftShoulder 1.493612 -7.254208 -7.919790
LeftArm 26.952001 63.045186 -53.619970
LeftForeArm 1.369611 0.000000 40.682227
LeftHand 0.219091 0.000000 -8.891490
LeftHandThumb1 -26.253704 0.000000 33.147579
RightShoulder 4.889666 -21.991305 3.502023
RightArm 38.942193 -31.981311 51.671627
RightForeArm -12.391325 0.000000 52.835287
RightHand 1.247358 -0.000000 0.705339
RightHandThumb1 -24.326973 -0.000000 -32.862282
LeftUpLeg -6.247550 16.696190 -2.698610
LeftLeg 21.169371 -0.000000 -0.000000
LeftFoot -22.823697 13.715387 -15.515476
LeftToeBase 12.871515 -0.000000 -0.000000
RightUpLeg 0.990537 -8.959509 -6.023041
RightLeg 6.327530 -0.000000 -0.000000
RightFoot -23.047566 -26.455014 13.875378
RightToeBase 17.245469 -0.000000 -0.000000
1911
root 17.363682 36.127989 -20.721398 -181.213107 0.696451 -184.778480
Spine 1.694752 2.667890 -4.331301
Head 142.560854 -1.187083 177.665726
LeftShoulder 1.563992 -7.177960 -8.073448
LeftArm 27.431931 62.995513 -53.098781
LeftForeArm 1.586439 -0.000000 40.775913
LeftHand 0.343185 -0.000000 -8.703000
LeftHandThumb1 -26.253704 0.000000 33.147579
RightShoulder 4.884529 -21.948043 3.563467
RightArm 39.234069 -32.098565 51.366199
RightForeArm -13.025477 -0.000000 52.337027
RightHand 1.394919 -0.000000 0.534013
RightHandThumb1 -24.326973 -0.000000 -32.862282
LeftUpLeg -5.516673 16.016607 -2.599285
LeftLeg 19.863943 -0.000000 -0.000000
LeftFoot -23.017791 15.431910 -15.669926
LeftToeBase 12.901782 -0.000000 -0.000000
RightUpLeg 1.496844 -9.096104 -5.798345
RightLeg 5.841704 -0.000000 -0.000000
RightFoot -22.913642 -26.456848 13.823156
RightToeBase 17.181652 -0.000000 -0.000000
1912
root 17.336702 36.100870 -20.733919 -181.285931 0.242951 -184.371002
Spine 1.527554 2.113036 -3.873474
Head 142.290197 -1.251362 177.620640
LeftShoulder 1.540160 -7.297292 -8.259011
LeftArm 27.814649 63.075717 -52.722347
LeftForeArm 2.014741 -0.000000 40.639313
LeftHand 0.480271 0.000000 -8.457584
LeftHandThumb1 -26.253704 0.000000 33.147579
RightShoulder 4.878336 -21.839663 3.592231
RightArm 39.632314 -32.320007 50.836399
RightForeArm -13.610804 -0.000000 51.804425
RightHand 1.302036 0.000000 0.314045
RightHandThumb1 -24.326973 -0.000000 -32.862282
LeftUpLeg -4.948025 14.837299 -2.440820
LeftLeg 18.642124 -0.000000 -0.000000
LeftFoot -23.358207 17.375894 -15.893680
LeftToeBase 13.479244 -0.000000 -0.000000
RightUpLeg 1.928837 -9.558068 -5.507338
RightLeg 5.423052 -0.000000 -0.000000
RightFoot -22.801324 -26.391688 13.906521
RightToeBase 16.990013 -0.000000 -0.000000
